<?xml version="1.0" encoding="UTF-8"?>
<svg version="1.1" xmlns="http://www.w3.org/2000/svg" width="219" height="230">
<path d="M0 0 C21.27646076 18.61690317 33.70343133 42.50391954 36.1328125 70.64526367 C38.05069928 99.80786777 28.083434 125.90588667 9.15625 147.90234375 C-9.47851119 168.0024024 -34.69501119 179.74991239 -62.10546875 181 C-91.55027931 181.66330132 -117.96173953 170.71456554 -139.28125 150.58984375 C-160.73259587 128.1562934 -168.18994623 101.34491303 -167.87109375 70.8984375 C-167.16672874 44.45846734 -153.87383465 20.25890594 -135.15625 2.09375 C-96.36427377 -32.02663154 -39.77914185 -33.12931542 0 0 Z " fill="#050101" transform="translate(175.59375,34.16015625)"/>
<path d="M0 0 C2.24609375 1.609375 2.24609375 1.609375 4.4375 3.75 C9.84086816 8.81398305 15.10892015 12.28371027 22 15 C22.88042969 15.35449219 23.76085937 15.70898438 24.66796875 16.07421875 C27.10956787 17.05567961 29.55369601 18.03033826 32 19 C32 19.66 32 20.32 32 21 C32.66644531 21.12117188 33.33289063 21.24234375 34.01953125 21.3671875 C43 23 43 23 45.36010742 23.50341797 C67.11482608 27.92952196 87.99019689 25.38726701 108.328125 17.05078125 C110.55617929 16.17454352 112.6657671 15.50575046 115 15 C115 14.34 115 13.68 115 13 C117.31 12.34 119.62 11.68 122 11 C122 10.34 122 9.68 122 9 C124.63892176 7.21694476 126.97178863 6.00940379 130 5 C128.56438314 8.18706942 126.79733671 10.62169105 124.5 13.25 C123.8915625 13.95640625 123.283125 14.6628125 122.65625 15.390625 C121 17 121 17 119 17 C118.5978125 17.90298828 118.5978125 17.90298828 118.1875 18.82421875 C116.22789589 22.41467759 113.18549103 24.50908972 110 27 C109.00226563 27.804375 109.00226563 27.804375 107.984375 28.625 C87.00865071 44.46680576 62.06340555 49.58296026 36.3125 46.3125 C12.133274 41.86327694 -10.57975067 28.88902147 -25.3125 8.85546875 C-27 6 -27 6 -27 3 C-25.62328125 2.92652344 -25.62328125 2.92652344 -24.21875 2.8515625 C-16.48887302 2.38062462 -7.53233666 -0.86116654 0 0 Z " fill="#A80202" transform="translate(58,161)"/>
<path d="M0 0 C26.14326562 2.36923345 48.6161345 15.65417593 66 35 C68 38 68 38 68 41 C68.66 41 69.32 41 70 41 C75.72906552 48.20101686 79.05858055 56.37638741 82 65 C82.35747314 66.04196533 82.71494629 67.08393066 83.08325195 68.1574707 C85.91858949 77.15407265 86.64460694 85.48489177 86.5 94.875 C86.4947934 95.57522278 86.48958679 96.27544556 86.48422241 96.99688721 C86.3569648 111.5908985 84.52645762 124.16800669 77 137 C76.34 137 75.68 137 75 137 C73.78125 135.50390625 73.78125 135.50390625 72.5 133.5625 C70.7134637 130.77468153 70.7134637 130.77468153 68 129 C67.01034524 127.28459842 66.02601539 125.56547775 65.08984375 123.8203125 C63.96288248 121.77933378 63.96288248 121.77933378 61.6875 119.625 C59.78604355 116.66717885 59.87126505 116.25615609 60.37890625 112.96484375 C62.25144755 98.82623271 61.32343091 84.82730199 58 71 C57.70222656 69.71480469 57.40445313 68.42960937 57.09765625 67.10546875 C55.9713806 62.66097052 54.45947127 58.40079962 52.8125 54.125 C52.51077881 53.33996094 52.20905762 52.55492187 51.89819336 51.74609375 C49.67943943 46.19777599 47.00565557 41.45990683 43.28515625 36.75 C42 35 42 35 42 33 C41.34 33 40.68 33 40 33 C38.51953125 31.2421875 38.51953125 31.2421875 36.8125 28.875 C34.44268145 25.71358239 32.11970875 23.06667709 29.0625 20.5625 C28.051875 19.716875 27.04125 18.87125 26 18 C26 17.34 26 16.68 26 16 C25.175 15.79375 24.35 15.5875 23.5 15.375 C20.45228694 14.17768415 18.85573951 13.23251568 16.375 11.25 C11.36989492 7.29655124 5.74849492 4.70179261 0 2 C0 1.34 0 0.68 0 0 Z " fill="#A80202" transform="translate(118,17)"/>
<path d="M0 0 C-0.33 1.32 -0.66 2.64 -1 4 C-1.66 4 -2.32 4 -3 4 C-3.17015625 5.24910156 -3.17015625 5.24910156 -3.34375 6.5234375 C-4.58076359 13.07666428 -6.69705235 22.27695919 -12.046875 26.6875 C-14.33737787 27.66218207 -16.60217986 28.3365255 -19 29 C-26.77054419 32.45776643 -35.66709312 36.61705955 -41.69140625 42.7109375 C-43 44 -43 44 -45 44 C-45 44.66 -45 45.32 -45 46 C-46.46875 47.375 -46.46875 47.375 -48.5 49 C-52.75908353 52.58460233 -56.00963324 56.6124779 -59.3359375 61.05859375 C-59.88507812 61.69925781 -60.43421875 62.33992188 -61 63 C-61.66 63 -62.32 63 -63 63 C-64.07525194 65.65228812 -65.09456151 68.28368454 -66 71 C-66.66 71 -67.32 71 -68 71 C-68.0825 71.639375 -68.165 72.27875 -68.25 72.9375 C-68.8861968 75.53530359 -69.62757224 77.48078918 -70.75 79.875 C-79.19220518 98.45401359 -80.35548903 115.86838257 -80 136 C-82.12225363 132.81661956 -83.22280911 129.91433406 -84.5 126.3125 C-84.9228125 125.13300781 -85.345625 123.95351562 -85.78125 122.73828125 C-88.65275935 113.93047854 -89.3090354 106.51855844 -89.25 97.25 C-89.25773437 96.05117187 -89.26546875 94.85234375 -89.2734375 93.6171875 C-89.23598261 76.35048489 -85.63867335 60.4697359 -76 46 C-75.41863281 45.04996094 -74.83726563 44.09992187 -74.23828125 43.12109375 C-71.20297286 38.17637227 -68.29258045 33.95369252 -64 30 C-63.15711153 28.94506412 -62.32404347 27.88222102 -61.5 26.8125 C-59.01700384 24.01912932 -57.53480077 23.00994308 -54 22 C-54 21.34 -54 20.68 -54 20 C-38.76459469 8.31158749 -19.41811486 0 0 0 Z " fill="#A90202" transform="translate(104,17)"/>
<path d="M0 0 C-0.63571472 4.27020493 -1.61012174 8.29384583 -2.8125 12.4375 C-4.98831057 20.17638303 -6.300749 28.02631037 -7.5168457 35.96655273 C-8.81122888 44.04830136 -10.02390885 50.13498218 -16.9375 55.25 C-17.79214844 55.89453125 -18.64679688 56.5390625 -19.52734375 57.203125 C-20.34332031 57.79609375 -21.15929687 58.3890625 -22 59 C-22.72316406 59.57234375 -23.44632813 60.1446875 -24.19140625 60.734375 C-26 62 -26 62 -28 62 C-28 62.66 -28 63.32 -28 64 C-29.390625 65.33203125 -29.390625 65.33203125 -31.25 66.8125 C-34.25493233 69.29324535 -36.68093994 71.84607831 -39 75 C-39.99 74.67 -40.98 74.34 -42 74 C-45.34370272 57.0622272 -42.9581056 41.26275971 -35 26 C-34.34 26 -33.68 26 -33 26 C-32.7628125 25.28457031 -32.525625 24.56914063 -32.28125 23.83203125 C-30.79179731 20.53979589 -28.93205153 18.35249153 -26.5 15.6875 C-25.7059375 14.80449219 -24.911875 13.92148437 -24.09375 13.01171875 C-22 11 -22 11 -20 11 C-20 10.34 -20 9.68 -20 9 C-17.5859375 7.34375 -17.5859375 7.34375 -14.375 5.5 C-12.80878906 4.58734375 -12.80878906 4.58734375 -11.2109375 3.65625 C-7.64424606 1.81649675 -4.0794383 0 0 0 Z " fill="#B80203" transform="translate(92,48)"/>
<path d="M0 0 C8.61555545 1.99123822 15.91460557 5.78207387 23 11 C23.99 11.721875 24.98 12.44375 26 13.1875 C38.86208566 24.36569143 45.65498561 39.43362029 47.31640625 56.19140625 C47.43273499 61.76743056 46.60875034 66.6710145 45 72 C40.86360664 70.40907948 37.76786752 67.39525082 35 64 C35 63.34 35 62.68 35 62 C34.443125 61.938125 33.88625 61.87625 33.3125 61.8125 C30.04206585 60.66342854 28.43612791 58.46674963 26 56 C23.68265833 53.91490632 21.31204733 51.89449836 18.9375 49.875 C18.32583984 49.35035156 17.71417969 48.82570312 17.08398438 48.28515625 C16.18969727 47.52138672 16.18969727 47.52138672 15.27734375 46.7421875 C14.70935059 46.25395508 14.14135742 45.76572266 13.55615234 45.26269531 C11.93391075 43.88508968 11.93391075 43.88508968 9.66015625 42.6015625 C7.0411142 40.07495722 6.95651347 36.95634728 6.5 33.5 C6.26619788 31.97346836 6.02908571 30.44744085 5.7890625 28.921875 C5.66563477 28.12201172 5.54220703 27.32214844 5.41503906 26.49804688 C4.70433985 22.22047374 3.78858002 17.9880878 2.875 13.75 C2.70419922 12.95271484 2.53339844 12.15542969 2.35742188 11.33398438 C2.04201113 9.86248644 1.72598063 8.39112114 1.40917969 6.91992188 C0.91844903 4.61735274 0.45282051 2.31030874 0 0 Z " fill="#B90202" transform="translate(129,56)"/>
<path d="M0 0 C5.81598728 2.25120018 11.48745587 4.14040229 17.5625 5.5625 C19.56955243 6.207624 21.57267187 6.86606015 23.5625 7.5625 C20.21971808 15.47779189 11.63219895 19.31042136 4.140625 22.51953125 C2.86445312 23.03580078 2.86445312 23.03580078 1.5625 23.5625 C0.79421875 23.91699219 0.0259375 24.27148438 -0.765625 24.63671875 C-13.39896322 29.01405962 -30.19745068 28.13388099 -42.37890625 23.0546875 C-49.2361433 19.70926661 -55.35267164 16.32530547 -60.4375 10.5625 C-56.03298095 9.09239518 -51.62790544 7.62411739 -47.21875 6.16796875 C-46.17424683 5.82197632 -46.17424683 5.82197632 -45.10864258 5.46899414 C-43.61156885 4.9732242 -42.11397783 4.47901453 -40.6159668 3.98608398 C-36.626966 2.66376553 -32.66901309 1.29199144 -28.73828125 -0.1953125 C-27.98417969 -0.47656982 -27.23007813 -0.75782715 -26.453125 -1.04760742 C-25.0248958 -1.58398472 -23.60129 -2.13290514 -22.18359375 -2.6965332 C-14.03219774 -5.73619039 -7.66608851 -2.98971363 0 0 Z " fill="#B90102" transform="translate(123.4375,149.4375)"/>
<path d="M0 0 C0.9178125 -0.00515625 1.835625 -0.0103125 2.78125 -0.015625 C5.6778282 0.26737402 7.86375653 1.04649755 10.5 2.25 C10.5 2.91 10.5 3.57 10.5 4.25 C11.0775 4.45625 11.655 4.6625 12.25 4.875 C15.47514041 6.84591914 17.22810186 8.73320164 18.5 12.25 C19.48607904 18.17372483 19.91131474 23.72284281 16.9140625 29.08984375 C12.36237929 34.46989843 8.71340766 36.72481604 1.7421875 37.59375 C-3.80211125 37.9828236 -7.64773841 37.83240358 -12.0625 34.25 C-16.94569813 29.18406265 -18.57489829 24.18978544 -19 17.25 C-18.84943328 12.13073163 -17.13729464 7.91803234 -13.5 4.25 C-12.51 4.25 -11.52 4.25 -10.5 4.25 C-10.5 3.59 -10.5 2.93 -10.5 2.25 C-6.85883 0.58772674 -3.99709631 -0.0224556 0 0 Z " fill="#9E0102" transform="translate(109.5,93.75)"/>
<path d="M0 0 C22.0087684 1.99454464 42.13286334 11.7029401 58 27 C59.04009218 28.30230029 60.06070607 29.62322671 61 31 C59.66666667 30.66666667 58.33333333 30.33333333 57 30 C56.29875 29.9175 55.5975 29.835 54.875 29.75 C53 29 53 29 51.9375 26.625 C51.628125 25.75875 51.31875 24.8925 51 24 C49.81104764 22.05967596 49.81104764 22.05967596 48 21 C45.40882687 21.00156224 45.40882687 21.00156224 43 22 C40.7226499 24.81509993 40.7226499 24.81509993 41 28 C40.34 28.99 39.68 29.98 39 31 C38.64808594 30.56429687 38.29617187 30.12859375 37.93359375 29.6796875 C34.68055853 25.75566069 31.32148321 22.42281682 27.3203125 19.26171875 C26.66675781 18.63716797 26.66675781 18.63716797 26 18 C26 17.34 26 16.68 26 16 C25.175 15.79375 24.35 15.5875 23.5 15.375 C20.45228694 14.17768415 18.85573951 13.23251568 16.375 11.25 C11.36989492 7.29655124 5.74849492 4.70179261 0 2 C0 1.34 0 0.68 0 0 Z " fill="#A30204" transform="translate(118,17)"/>
<path d="M0 0 C0.495 1.98 0.495 1.98 1 4 C-0.32 4.66 -1.64 5.32 -3 6 C-2.505 6.99 -2.505 6.99 -2 8 C-2.79664063 8.31453125 -3.59328125 8.6290625 -4.4140625 8.953125 C-10.04024468 11.22550029 -15.06032318 13.49022962 -20 17 C-20.66 17 -21.32 17 -22 17 C-22 17.66 -22 18.32 -22 19 C-23.1868363 20.0896512 -24.42619706 21.12248565 -25.6875 22.125 C-29.37124218 25.22195139 -31.70626598 28.28392367 -33.9921875 32.49609375 C-34.32476562 32.99238281 -34.65734375 33.48867187 -35 34 C-35.66 34 -36.32 34 -37 34 C-37 32.68 -37 31.36 -37 30 C-38.32 30 -39.64 30 -41 30 C-41.04125 30.763125 -41.0825 31.52625 -41.125 32.3125 C-41.41375 33.199375 -41.7025 34.08625 -42 35 C-43.423125 35.680625 -43.423125 35.680625 -44.875 36.375 C-49.03401227 38.53768638 -49.39164708 40.68668989 -51 45 C-52.20509375 47.16444289 -53.4978768 49.01332093 -55 51 C-55.66 51 -56.32 51 -57 51 C-57.103125 51.886875 -57.20625 52.77375 -57.3125 53.6875 C-58.02217809 57.10685807 -59.09831411 59.10943744 -61 62 C-61.68096422 63.32608822 -62.35330586 64.65686601 -63 66 C-63.66 66 -64.32 66 -65 66 C-63.26375242 59.5811453 -61.14819255 53.86215164 -58 48 C-57.34 48 -56.68 48 -56 48 C-55.87625 47.4225 -55.7525 46.845 -55.625 46.25 C-54.23165761 41.2339674 -51.71520187 38.62232182 -48 35 C-47.34 34.01 -46.68 33.02 -46 32 C-45.34 32 -44.68 32 -44 32 C-43.773125 31.443125 -43.54625 30.88625 -43.3125 30.3125 C-41.62449964 27.33840412 -39.53323483 25.27991135 -37 23 C-36.34 23 -35.68 23 -35 23 C-35 22.34 -35 21.68 -35 21 C-25.67792407 13.01751372 -14.77737106 6.52188699 -3.08203125 2.82421875 C-0.82038918 2.19663075 -0.82038918 2.19663075 0 0 Z " fill="#280101" transform="translate(94,40)"/>
<path d="M0 0 C9.86883996 9.86883996 11.10886677 31.25560492 11.13867188 44.61450195 C11.13416016 45.50484131 11.12964844 46.39518066 11.125 47.3125 C11.12306641 48.23442139 11.12113281 49.15634277 11.11914062 50.10620117 C11.07891033 56.44303136 10.82486851 62.7103776 10 69 C9.34 69 8.68 69 8 69 C8 66.69 8 64.38 8 62 C6.6078125 62.2475 6.6078125 62.2475 5.1875 62.5 C2 63 2 63 -1 63 C-1.66 60.36 -2.32 57.72 -3 55 C-0.36 56.98 2.28 58.96 5 61 C5.40315174 58.32911975 5.73309144 55.68630547 6 53 C6.07992187 52.236875 6.15984375 51.47375 6.2421875 50.6875 C6.95155068 37.33478134 2.25601751 23.09597179 -5 12 C-3.68 12 -2.36 12 -1 12 C-0.34 11.34 0.32 10.68 1 10 C1.02253443 7.55036823 1.02253443 7.55036823 0.625 4.875 C0.51414063 3.96492188 0.40328125 3.05484375 0.2890625 2.1171875 C0.19367188 1.41851562 0.09828125 0.71984375 0 0 Z " fill="#0F0101" transform="translate(169,67)"/>
<path d="M0 0 C4.16050506 0.95487001 7.85769725 2.2792024 11.8125 3.875 C11.1525 5.525 10.4925 7.175 9.8125 8.875 C12.4525 9.535 15.0925 10.195 17.8125 10.875 C17.8125 11.865 17.8125 12.855 17.8125 13.875 C18.575625 14.019375 19.33875 14.16375 20.125 14.3125 C22.8125 14.875 22.8125 14.875 25.8125 15.875 C25.8125 16.535 25.8125 17.195 25.8125 17.875 C26.43125 18.143125 27.05 18.41125 27.6875 18.6875 C29.8125 19.875 29.8125 19.875 31.8125 22.875 C29.10719777 21.54309507 26.45944853 20.14013695 23.828125 18.66796875 C10.59924852 11.38894194 -2.20235963 6.28847213 -17.1875 3.875 C-17.1875 4.535 -17.1875 5.195 -17.1875 5.875 C-14.7125 6.865 -14.7125 6.865 -12.1875 7.875 C-13.1775 8.37 -13.1775 8.37 -14.1875 8.875 C-16.3125 7.9375 -16.3125 7.9375 -18.1875 6.875 C-18.1875 6.215 -18.1875 5.555 -18.1875 4.875 C-18.8475 4.875 -19.5075 4.875 -20.1875 4.875 C-20.1875 4.215 -20.1875 3.555 -20.1875 2.875 C-16.7225 2.38 -16.7225 2.38 -13.1875 1.875 C-13.1875 2.535 -13.1875 3.195 -13.1875 3.875 C-10.32025314 3.30155063 -9.3260485 3.0135485 -7.1875 0.875 C-6.8575 1.535 -6.5275 2.195 -6.1875 2.875 C-5.836875 2.359375 -5.48625 1.84375 -5.125 1.3125 C-3.1875 -0.125 -3.1875 -0.125 0 0 Z " fill="#070203" transform="translate(135.1875,13.125)"/>
<path d="M0 0 C1.4540625 0.0309375 1.4540625 0.0309375 2.9375 0.0625 C-0.07200123 1.67975534 -3.03353608 2.73832623 -6.3125 3.6875 C-7.65054688 4.07808594 -7.65054688 4.07808594 -9.015625 4.4765625 C-9.69109375 4.66992188 -10.3665625 4.86328125 -11.0625 5.0625 C-6.87706067 9.46573368 -2.4181519 12.24790337 2.9375 15.0625 C3.8553125 15.55621094 4.773125 16.04992187 5.71875 16.55859375 C18.03741061 22.04910788 31.74817767 20.50817787 44.9375 20.0625 C44.9375 20.7225 44.9375 21.3825 44.9375 22.0625 C31.91414915 22.93972052 19.85826365 23.3176049 7.03125 20.46484375 C4.80182664 19.96814426 4.80182664 19.96814426 1.9375 20.0625 C-5.70325861 17.46464207 -12.43519395 12.72523497 -17.0625 6.0625 C-16.0725 6.0625 -15.0825 6.0625 -14.0625 6.0625 C-13.7325 5.0725 -13.4025 4.0825 -13.0625 3.0625 C-11.03125 2.3671875 -11.03125 2.3671875 -8.5625 1.9375 C-5.31702446 1.35208194 -3.1715148 0.06472479 0 0 Z " fill="#290101" transform="translate(75.0625,154.9375)"/>
<path d="M0 0 C0.66 0 1.32 0 2 0 C0.56438314 3.18706942 -1.20266329 5.62169105 -3.5 8.25 C-4.41265625 9.30960938 -4.41265625 9.30960938 -5.34375 10.390625 C-7 12 -7 12 -9 12 C-9.26554687 12.59941406 -9.53109375 13.19882813 -9.8046875 13.81640625 C-13.1370716 19.90399682 -20.18304055 23.58536926 -26 27 C-26 25.35 -26 23.7 -26 22 C-25.071875 21.79375 -24.14375 21.5875 -23.1875 21.375 C-19.73995905 20.25553808 -19.73995905 20.25553808 -18.125 16.875 C-17.75375 15.92625 -17.3825 14.9775 -17 14 C-17.99 14.66 -18.98 15.32 -20 16 C-23.1875 16.125 -23.1875 16.125 -26 16 C-22.2440786 12.57068046 -17.76533255 11.43570917 -13 10 C-13 9.34 -13 8.68 -13 8 C-10.69 7.34 -8.38 6.68 -6 6 C-6 5.34 -6 4.68 -6 4 C-4.36368108 2.95107762 -2.69514137 1.95093297 -1 1 C-0.67 0.67 -0.34 0.34 0 0 Z " fill="#9E0709" transform="translate(186,166)"/>
<path d="M0 0 C0.33 0 0.66 0 1 0 C1.02688151 1.64574566 1.04634123 3.29161413 1.0625 4.9375 C1.07410156 5.85402344 1.08570313 6.77054687 1.09765625 7.71484375 C1 10 1 10 0 11 C-0.23287008 12.68183948 -0.41264166 14.3712416 -0.5625 16.0625 C-0.64628906 16.98160156 -0.73007812 17.90070313 -0.81640625 18.84765625 C-0.87699219 19.55792969 -0.93757813 20.26820312 -1 21 C-1.33 21 -1.66 21 -2 21 C-2.33 29.91 -2.66 38.82 -3 48 C-3.99 48 -4.98 48 -6 48 C-6.45375 46.9275 -6.9075 45.855 -7.375 44.75 C-9.55429306 39.47192092 -9.55429306 39.47192092 -13 35 C-13 30.33333333 -13 25.66666667 -13 21 C-11.2859332 23.57110021 -10.55414399 25.07318276 -9.74609375 27.94140625 C-9.53146484 28.68970703 -9.31683594 29.43800781 -9.09570312 30.20898438 C-8.87849609 30.98564453 -8.66128906 31.76230469 -8.4375 32.5625 C-7.04180068 37.90131669 -7.04180068 37.90131669 -5 43 C-5.02320313 41.79085937 -5.04640625 40.58171875 -5.0703125 39.3359375 C-5.25343453 25.70243284 -4.49911538 13.0174405 0 0 Z " fill="#320202" transform="translate(28,107)"/>
<path d="M0 0 C0 3.67939672 -1.28480263 4.70745869 -3.625 7.38671875 C-6.60598347 10.8842931 -9.28930109 14.38045707 -10 19 C-10.66 19 -11.32 19 -12 19 C-12.33 20.65 -12.66 22.3 -13 24 C-13.66 24 -14.32 24 -15 24 C-14.938125 24.680625 -14.87625 25.36125 -14.8125 26.0625 C-15.05372352 29.84166848 -16.45508155 32.55364345 -18 36 C-19.72099434 41.19423787 -20.38480531 45.92743606 -20.6328125 51.33984375 C-20.67437469 52.10680069 -20.71593689 52.87375763 -20.75875854 53.66395569 C-20.88840355 56.08814406 -21.00688294 58.51272542 -21.125 60.9375 C-21.2114991 62.59183576 -21.29873156 64.24613334 -21.38671875 65.90039062 C-21.59962499 69.93320211 -21.80252685 73.96640456 -22 78 C-22.33 78 -22.66 78 -23 78 C-23.0589002 73.58339099 -23.09389517 69.16688531 -23.125 64.75 C-23.14175781 63.51507813 -23.15851562 62.28015625 -23.17578125 61.0078125 C-23.26759224 43.56372496 -19.74362183 27.6272289 -10 13 C-9.39542969 12.01515625 -8.79085938 11.0303125 -8.16796875 10.015625 C-3.40025622 2.26683748 -3.40025622 2.26683748 0 0 Z " fill="#890A0C" transform="translate(38,50)"/>
<path d="M0 0 C0.33 0 0.66 0 1 0 C1.20638953 22.80127986 1.20638953 22.80127986 0 32 C-0.66 32 -1.32 32 -2 32 C-2 29.69 -2 27.38 -2 25 C-3.3921875 25.2475 -3.3921875 25.2475 -4.8125 25.5 C-8 26 -8 26 -11 26 C-11.66 23.36 -12.32 20.72 -13 18 C-10.36 19.98 -7.72 21.96 -5 24 C-3.75088333 16.34916042 -3.90946574 8.72559014 -4 1 C-1.01054405 5.48418393 -1.37740622 9.65341189 -1 15 C-0.67 10.05 -0.34 5.1 0 0 Z " fill="#240000" transform="translate(179,104)"/>
<path d="M0 0 C-19.80214709 10.40497145 -36.6468475 14.90113493 -59 14 C-59 13.67 -59 13.34 -59 13 C-58.26394531 12.93941406 -57.52789062 12.87882813 -56.76953125 12.81640625 C-55.79371094 12.73261719 -54.81789063 12.64882812 -53.8125 12.5625 C-52.84957031 12.48128906 -51.88664062 12.40007812 -50.89453125 12.31640625 C-48.06083967 12.05816228 -48.06083967 12.05816228 -45.5625 11.46875 C-42.39962821 10.89017589 -39.40056454 10.9050448 -36.1875 10.9375 C-35.02605469 10.94652344 -33.86460938 10.95554688 -32.66796875 10.96484375 C-31.78753906 10.97644531 -30.90710938 10.98804688 -30 11 C-30 10.34 -30 9.68 -30 9 C-28.1746875 8.7834375 -28.1746875 8.7834375 -26.3125 8.5625 C-23.17329623 8.17219047 -20.0924866 7.67648144 -17 7 C-17 6.01 -17 5.02 -17 4 C-13.7 3.34 -10.4 2.68 -7 2 C-7 1.34 -7 0.68 -7 0 C-3.86650268 -1.04449911 -3.01031744 -0.93423645 0 0 Z " fill="#89090C" transform="translate(160,194)"/>
<path d="M0 0 C0.66 0.66 1.32 1.32 2 2 C1.34 2 0.68 2 0 2 C0 3.32 0 4.64 0 6 C0 6.99 0 7.98 0 9 C-0.66 9 -1.32 9 -2 9 C-2 9.66 -2 10.32 -2 11 C-3.32 10.34 -4.64 9.68 -6 9 C-6.33 9.66 -6.66 10.32 -7 11 C-6.34 11 -5.68 11 -5 11 C-5 11.66 -5 12.32 -5 13 C-6.32 13.33 -7.64 13.66 -9 14 C-9.33 15.98 -9.66 17.96 -10 20 C-14 20 -14 20 -16 19 C-14.4585799 15.43082939 -12.30524541 12.91782231 -9.6875 10.0625 C-8.88828125 9.18980469 -8.0890625 8.31710938 -7.265625 7.41796875 C-4.89367667 4.88652734 -2.49255396 2.41214899 0 0 Z " fill="#070609" transform="translate(43,34)"/>
<path d="M0 0 C10.0938783 1.02779612 18.61007794 3.26115566 28 7 C28 7.33 28 7.66 28 8 C24.50765756 8.09978121 21.40562852 7.77842938 18 7 C18 8.32 18 9.64 18 11 C12 8 6 5 0 2 C0 1.34 0 0.68 0 0 Z " fill="#8F080B" transform="translate(118,17)"/>
<path d="M0 0 C0 0.99 0 1.98 0 3 C-1.16501738 4.13075216 -2.33258559 5.25897538 -3.51171875 6.375 C-10.77444797 14.30490907 -16.62849923 26.56539662 -19 37 C-19.33 37 -19.66 37 -20 37 C-19.58846263 32.02906176 -19.20399168 27.55491614 -17 23 C-16.34 23 -15.68 23 -15 23 C-14.8453125 21.6696875 -14.8453125 21.6696875 -14.6875 20.3125 C-13.98284093 16.9173245 -13.0445434 14.78057902 -11 12 C-10.34 12 -9.68 12 -9 12 C-9.99 9.69 -10.98 7.38 -12 5 C-9.03 5.495 -9.03 5.495 -6 6 C-5.3503125 4.7934375 -5.3503125 4.7934375 -4.6875 3.5625 C-3 1 -3 1 0 0 Z " fill="#220002" transform="translate(38,48)"/>
<path d="M0 0 C0 0.66 0 1.32 0 2 C-2.64 2.33 -5.28 2.66 -8 3 C-8.70074844 6.153368 -9 8.72724974 -9 12 C-8.34 12 -7.68 12 -7 12 C-6.67 13.32 -6.34 14.64 -6 16 C-10.53496279 12.40769802 -14.1732752 9.08810464 -17 4 C-17 3.01 -17 2.02 -17 1 C-14.72926348 0.83201949 -12.45840707 0.66565887 -10.1875 0.5 C-8.29064453 0.36078125 -8.29064453 0.36078125 -6.35546875 0.21875 C-4.24021483 0.08085219 -2.11974408 0 0 0 Z " fill="#A30404" transform="translate(48,163)"/>
<path d="M0 0 C2.84550012 0.66010476 5.52325999 1.51724966 8.25 2.5625 C8.95640625 2.83191406 9.6628125 3.10132813 10.390625 3.37890625 C10.92171875 3.58386719 11.4528125 3.78882813 12 4 C9 6 9 6 7 6 C7 6.66 7 7.32 7 8 C6.34 8 5.68 8 5 8 C5.165 8.78375 5.33 9.5675 5.5 10.375 C6.12960847 14.93966142 6.08180527 19.40072601 6 24 C5.67 24 5.34 24 5 24 C4.35374544 20.93758873 3.70807147 17.87505533 3.0625 14.8125 C2.88009766 13.94818359 2.69769531 13.08386719 2.50976562 12.19335938 C1.65404145 8.13255919 0.80092216 4.07205686 0 0 Z " fill="#B50709" transform="translate(129,56)"/>
<path d="M0 0 C2.30919515 2.30919515 3.07795479 3.87578856 4 7 C3.6171875 9.7265625 3.6171875 9.7265625 2.875 12.625 C1.71069153 18.5411424 2.6847827 22.05662772 5.0390625 27.5078125 C6.34096448 30.88428998 6.31728494 33.43054441 6 37 C4.30647508 33.85914541 3.23406384 30.7193993 2.1875 27.3125 C0.39027059 21.78517181 -1.95670042 16.93912555 -5 12 C-3.68 12 -2.36 12 -1 12 C-0.34 11.34 0.32 10.68 1 10 C1.02253443 7.55036823 1.02253443 7.55036823 0.625 4.875 C0.51414063 3.96492188 0.40328125 3.05484375 0.2890625 2.1171875 C0.19367188 1.41851562 0.09828125 0.71984375 0 0 Z " fill="#200001" transform="translate(169,67)"/>
<path d="M0 0 C2.62559844 0.3080144 5.25039806 0.62120182 7.875 0.9375 C8.99455078 1.06801758 8.99455078 1.06801758 10.13671875 1.20117188 C15.7734375 1.88671875 15.7734375 1.88671875 18 3 C18.625 6.0625 18.625 6.0625 19 9 C15.39042389 12.2910841 12.87362847 13.54663921 8 14 C9.1446875 12.88625 9.1446875 12.88625 10.3125 11.75 C12.4393702 9.5736677 14.2559956 7.47832204 16 5 C15.21625 4.896875 14.4325 4.79375 13.625 4.6875 C8.9676024 3.80420046 4.51807851 2.41971242 0 1 C0 0.67 0 0.34 0 0 Z " fill="#210102" transform="translate(131,152)"/>
<path d="M0 0 C-0.33 1.32 -0.66 2.64 -1 4 C-1.66 4 -2.32 4 -3 4 C-3 3.34 -3 2.68 -3 2 C-18.42279955 4.52229447 -18.42279955 4.52229447 -32.58984375 10.828125 C-35.27809137 12.13521461 -37.04933049 12.23225306 -40 12 C-29.54727545 3.65233803 -13.20480995 0 0 0 Z " fill="#820B0C" transform="translate(104,17)"/>
<path d="M0 0 C2.6875 0.3125 2.6875 0.3125 5 1 C5 1.99 5 2.98 5 4 C2.69921875 6.078125 2.69921875 6.078125 -0.3125 8.25 C-1.79169922 9.34054688 -1.79169922 9.34054688 -3.30078125 10.453125 C-4.63689453 11.21882812 -4.63689453 11.21882812 -6 12 C-6.99 11.67 -7.98 11.34 -9 11 C-8.66579964 7.88079662 -8.05211466 7.04525746 -5.625 4.9375 C-4.75875 4.298125 -3.8925 3.65875 -3 3 C-2.505 2.401875 -2.01 1.80375 -1.5 1.1875 C-1.005 0.795625 -0.51 0.40375 0 0 Z " fill="#040404" transform="translate(172,186)"/>
<path d="M0 0 C-0.50712033 3.71888239 -1.11608215 6.73454239 -3 10 C-3 7.69 -3 5.38 -3 3 C-4.65 3.33 -6.3 3.66 -8 4 C-8 4.99 -8 5.98 -8 7 C-15.28571429 11.57142857 -15.28571429 11.57142857 -20 11 C-20 10.34 -20 9.68 -20 9 C-17.5859375 7.34375 -17.5859375 7.34375 -14.375 5.5 C-12.80878906 4.58734375 -12.80878906 4.58734375 -11.2109375 3.65625 C-7.64424606 1.81649675 -4.0794383 0 0 0 Z " fill="#980907" transform="translate(92,48)"/>
<path d="M0 0 C0 0.33 0 0.66 0 1 C-9.15197174 3.55403863 -17.51160514 4.38408795 -27 4 C-26.505 4.928125 -26.01 5.85625 -25.5 6.8125 C-24 10 -24 10 -24 13 C-28.75 11.125 -28.75 11.125 -31 10 C-30.38722388 7.03824877 -29.74627478 5.61941217 -28 3 C-25.53125 2.55859375 -25.53125 2.55859375 -22.5 2.4375 C-18.43537293 2.20356463 -14.60290305 1.80804413 -10.625 0.9375 C-7.01365172 0.15115804 -3.71477402 -0.19551442 0 0 Z " fill="#220103" transform="translate(58,160)"/>
<path d="M0 0 C5.30187525 9.95772369 5.20109114 21.39638558 2 32 C0.68 31.34 -0.64 30.68 -2 30 C-1.34 29.67 -0.68 29.34 0 29 C0 26.69 0 24.38 0 22 C0.66 22 1.32 22 2 22 C1.855625 21.0821875 1.71125 20.164375 1.5625 19.21875 C0.58361714 12.74724667 -0.26184366 6.54609151 0 0 Z " fill="#8E080E" transform="translate(172,96)"/>
<path d="M0 0 C-1.2065625 0.6496875 -1.2065625 0.6496875 -2.4375 1.3125 C-5.27846354 2.80474002 -5.27846354 2.80474002 -6 6 C-7.84765625 6.73046875 -7.84765625 6.73046875 -10.0625 7.1875 C-10.79597656 7.34605469 -11.52945313 7.50460938 -12.28515625 7.66796875 C-12.85105469 7.77753906 -13.41695312 7.88710937 -14 8 C-14 7.01 -14 6.02 -14 5 C-16.64 5.33 -19.28 5.66 -22 6 C-19.18808439 3.18808439 -15.83480922 2.46483897 -12.125 1.3125 C-11.40441406 1.07466797 -10.68382813 0.83683594 -9.94140625 0.59179688 C-6.19696498 -0.58394389 -3.74176921 -1.1851875 0 0 Z " fill="#B20609" transform="translate(94,152)"/>
<path d="M0 0 C1.39300897 3.88472925 0.71911044 7.22958143 0.125 11.25 C-0.06640779 12.5924477 -0.25781405 13.93489561 -0.44921875 15.27734375 C-0.63097656 16.50582031 -0.81273438 17.73429687 -1 19 C-2.05629585 24.12151081 -2.05629585 24.12151081 -1 29 C-3.475 31.475 -3.475 31.475 -6 34 C-6.66 33.67 -7.32 33.34 -8 33 C-7.54882812 32.08734375 -7.09765625 31.1746875 -6.6328125 30.234375 C-4.43548079 25.10640698 -3.73661924 19.72989836 -2.875 14.25 C-2.5409897 12.19239457 -2.20513602 10.13508728 -1.8671875 8.078125 C-1.72394043 7.17481445 -1.58069336 6.27150391 -1.43310547 5.34082031 C-1 3 -1 3 0 0 Z " fill="#230102" transform="translate(87,66)"/>
<path d="M0 0 C-7.9436568 4.2589776 -15.53313497 4.56449449 -24.31640625 4.41162109 C-26.52389731 4.37459922 -28.72972767 4.37060617 -30.9375 4.37109375 C-41.70405234 4.29594766 -41.70405234 4.29594766 -44 2 C-43.21987549 2.01571045 -42.43975098 2.0314209 -41.63598633 2.04760742 C-38.02823428 2.11078907 -34.42059925 2.1492516 -30.8125 2.1875 C-28.97268555 2.22520508 -28.97268555 2.22520508 -27.09570312 2.26367188 C-19.5470032 2.32342412 -12.89884501 1.57492947 -5.6159668 -0.44799805 C-3 -1 -3 -1 0 0 Z " fill="#240000" transform="translate(136,205)"/>
<path d="M0 0 C0.99 0 1.98 0 3 0 C3 2.64 3 5.28 3 8 C2.01 8.495 2.01 8.495 1 9 C1 9.66 1 10.32 1 11 C1.66 11.33 2.32 11.66 3 12 C2.071875 12.433125 1.14375 12.86625 0.1875 13.3125 C-2.52966383 14.7509985 -3.96731239 15.82081239 -6 18 C-4.23536928 11.89262558 -2.30442525 5.92566493 0 0 Z " fill="#1B0203" transform="translate(101,21)"/>
<path d="M0 0 C0.45375 0.66 0.9075 1.32 1.375 2 C1.91125 2.66 2.4475 3.32 3 4 C3.66 4 4.32 4 5 4 C5.33 2.68 5.66 1.36 6 0 C6.33 6.93 6.66 13.86 7 21 C4.83662639 17.75493959 3.69128328 14.73038879 2.375 11.0625 C1.92898437 9.83660156 1.48296875 8.61070312 1.0234375 7.34765625 C0 4 0 4 0 0 Z " fill="#960A0A" transform="translate(17,132)"/>
<path d="M0 0 C5.13503344 0.64187918 9.9943454 1.68272247 15 3 C15 3.99 15 4.98 15 6 C15.763125 6.144375 16.52625 6.28875 17.3125 6.4375 C20 7 20 7 23 8 C23 8.66 23 9.32 23 10 C23.928125 10.4021875 23.928125 10.4021875 24.875 10.8125 C27 12 27 12 29 15 C26.1934208 13.61137341 23.42263801 12.16903541 20.6640625 10.6875 C19.84679687 10.25179688 19.02953125 9.81609375 18.1875 9.3671875 C16.48524494 8.45897215 14.78470544 7.5475337 13.0859375 6.6328125 C8.7970137 4.35347878 4.69376932 2.34544528 0 1 C0 0.67 0 0.34 0 0 Z " fill="#2B0101" transform="translate(138,21)"/>
<path d="M0 0 C2.90802461 2.21928194 4.95312762 3.92969143 7 7 C7 7.99 7 8.98 7 10 C7.66 10 8.32 10 9 10 C12 13.46153846 12 13.46153846 12 16 C6.375 16.25 6.375 16.25 3 14 C3.33 12.68 3.66 11.36 4 10 C4.66 10 5.32 10 6 10 C5.29660434 7.49034386 5.29660434 7.49034386 4 5 C1.95894361 4.11306697 1.95894361 4.11306697 0 4 C0 2.68 0 1.36 0 0 Z " fill="#940507" transform="translate(179,48)"/>
<path d="M0 0 C5.3413646 1.40261788 8.8520437 3.84696598 13.0625 7.25 C13.66126953 7.71535156 14.26003906 8.18070313 14.87695312 8.66015625 C18.79207196 11.77338328 21.91749159 15.06091553 25 19 C23.66666667 18.66666667 22.33333333 18.33333333 21 18 C20.29875 17.9175 19.5975 17.835 18.875 17.75 C18.25625 17.5025 17.6375 17.255 17 17 C16.7525 16.278125 16.505 15.55625 16.25 14.8125 C14.57100869 11.03476955 12.04814393 9.60364155 8.6796875 7.33203125 C8.12539062 6.89246094 7.57109375 6.45289063 7 6 C7 5.34 7 4.68 7 4 C4.03 3.505 4.03 3.505 1 3 C0.67 2.01 0.34 1.02 0 0 Z " fill="#91090C" transform="translate(154,29)"/>
<path d="M0 0 C0.99 0 1.98 0 3 0 C3.40322225 3.52819467 3.18545105 4.74276145 1.0625 7.6875 C0.381875 8.450625 -0.29875 9.21375 -1 10 C-1.33 10.66 -1.66 11.32 -2 12 C-4.0625 12.625 -4.0625 12.625 -6 13 C-4.33248852 9.05860922 -1.77289351 6.2107188 1 3 C-0.1446875 3.99 -0.1446875 3.99 -1.3125 5 C-4 7 -4 7 -7 7 C-7 7.66 -7 8.32 -7 9 C-7.99 9.33 -8.98 9.66 -10 10 C-10 9.34 -10 8.68 -10 8 C-9.34 8 -8.68 8 -8 8 C-8 7.34 -8 6.68 -8 6 C-7.01 6 -6.02 6 -5 6 C-5 5.34 -5 4.68 -5 4 C-4.34 4 -3.68 4 -3 4 C-2.67 3.01 -2.34 2.02 -2 1 C-1.34 1.33 -0.68 1.66 0 2 C0 1.34 0 0.68 0 0 Z " fill="#1F0201" transform="translate(187,163)"/>
<path d="M0 0 C1.37606252 4.71792866 0.91009442 8.91213634 -1.0625 13.4375 C-1.5265625 14.2109375 -1.5265625 14.2109375 -2 15 C-1.34 15.33 -0.68 15.66 0 16 C-2.25 18.5625 -2.25 18.5625 -5 21 C-7.3125 20.8125 -7.3125 20.8125 -9 20 C-8.67 18.68 -8.34 17.36 -8 16 C-8 16.66 -8 17.32 -8 18 C-4.352768 16.176384 -3.39768337 11.66605475 -2 8 C-1.2131236 5.34210637 -0.59153381 2.71119662 0 0 Z " fill="#310101" transform="translate(201,136)"/>
<path d="M0 0 C-0.99 0.495 -0.99 0.495 -2 1 C-3.13350534 3.01669827 -3.13350534 3.01669827 -4 5 C-4 4.34 -4 3.68 -4 3 C-9.28 3.66 -14.56 4.32 -20 5 C-14.82639095 -0.17360905 -6.91618528 -1.84431607 0 0 Z " fill="#96090A" transform="translate(114,146)"/>
<path d="M0 0 C0.99 0.144375 1.98 0.28875 3 0.4375 C5.78746719 0.84139831 8.57656487 1.1817664 11.375 1.5 C15 2 15 2 16 3 C18.69235776 3.23678716 21.36498156 3.42198025 24.0625 3.5625 C25.20041992 3.62727539 25.20041992 3.62727539 26.36132812 3.69335938 C28.24065438 3.79973633 30.12030244 3.90039934 32 4 C32 4.33 32 4.66 32 5 C10.46808511 5.76595745 10.46808511 5.76595745 0 1 C0 0.67 0 0.34 0 0 Z " fill="#9C0A0D" transform="translate(80,171)"/>
<path d="M0 0 C1.37562854 1.28965176 2.70766393 2.62689293 4 4 C4 4.66 4 5.32 4 6 C5.32 6 6.64 6 8 6 C8.33 6.99 8.66 7.98 9 9 C11.84412317 10.84993852 14.40490751 11.32984478 17.75 11.625 C18.54921875 11.69976562 19.3484375 11.77453125 20.171875 11.8515625 C20.77515625 11.90054688 21.3784375 11.94953125 22 12 C22 12.33 22 12.66 22 13 C11.96144613 14.05404816 11.96144613 14.05404816 7.4921875 11.65234375 C3.48182245 8.28570888 1.02957109 5.27655186 0 0 Z " fill="#83080C" transform="translate(92,118)"/>
<path d="M0 0 C-8.52897524 4.17375384 -17.31811393 8.32966996 -27 8 C-27 7.34 -27 6.68 -27 6 C-24.94921875 5.77213542 -22.8984375 5.54427083 -20.84765625 5.31640625 C-18.98859771 5.18113386 -18.98859771 5.18113386 -18 4 C-16.00041636 3.95919217 -13.99954746 3.95745644 -12 4 C-12 3.34 -12 2.68 -12 2 C-10.68 2 -9.36 2 -8 2 C-8 1.34 -8 0.68 -8 0 C-4.71303767 -0.79953138 -3.28976808 -1.09658936 0 0 Z " fill="#250000" transform="translate(171,177)"/>
<path d="M0 0 C0.33 0.99 0.66 1.98 1 3 C3.01508358 3.73323796 3.01508358 3.73323796 5 4 C1.59598052 5.13732426 -0.77456664 4.83989957 -4.25 4.0625 C-5.14203125 3.86785156 -6.0340625 3.67320313 -6.953125 3.47265625 C-7.62859375 3.31667969 -8.3040625 3.16070313 -9 3 C-9 3.66 -9 4.32 -9 5 C-6.525 5.99 -6.525 5.99 -4 7 C-4.99 7.495 -4.99 7.495 -6 8 C-8.125 7.0625 -8.125 7.0625 -10 6 C-10 5.34 -10 4.68 -10 4 C-10.66 4 -11.32 4 -12 4 C-12 3.34 -12 2.68 -12 2 C-8.535 1.505 -8.535 1.505 -5 1 C-5 1.66 -5 2.32 -5 3 C-3.02463255 2.65213292 -3.02463255 2.65213292 -1 2 C-0.67 1.34 -0.34 0.68 0 0 Z " fill="#1C0102" transform="translate(127,14)"/>
<path d="M0 0 C1.32 0 2.64 0 4 0 C3.40075776 4.19469571 2.42500059 8.00999834 1 12 C0.67 10.68 0.34 9.36 0 8 C-0.66 8 -1.32 8 -2 8 C-2.625 6.1875 -2.625 6.1875 -3 4 C-1 1 -1 1 0 0 Z " fill="#A00608" transform="translate(27,98)"/>
<path d="M0 0 C0.66 0 1.32 0 2 0 C0.63629701 2.99220268 -0.94908083 5.29026529 -3.125 7.75 C-3.93324219 8.67039063 -3.93324219 8.67039063 -4.7578125 9.609375 C-5.37269531 10.29773438 -5.37269531 10.29773438 -6 11 C-6.33 10.34 -6.66 9.68 -7 9 C-8.98 9.33 -10.96 9.66 -13 10 C-13 9.34 -13 8.68 -13 8 C-10.69 7.34 -8.38 6.68 -6 6 C-6 5.34 -6 4.68 -6 4 C-4.36368108 2.95107762 -2.69514137 1.95093297 -1 1 C-0.67 0.67 -0.34 0.34 0 0 Z " fill="#8A080E" transform="translate(186,166)"/>
<path d="M0 0 C0.99 0.33 1.98 0.66 3 1 C4.1875 3.5625 4.1875 3.5625 5 6 C5.66 6 6.32 6 7 6 C8.4606285 8.64738916 9 9.89448334 9 13 C9.99 13 10.98 13 12 13 C12.33 16.3 12.66 19.6 13 23 C10.73628792 20.73628792 9.99058485 18.8776861 8.75 15.9375 C6.63652523 11.14906015 4.15246877 6.94883489 1.13671875 2.6796875 C0 1 0 1 0 0 Z " fill="#990A0F" transform="translate(160,51)"/>
<path d="M0 0 C1.98 0 3.96 0 6 0 C6.33 0.99 6.66 1.98 7 3 C9.28958572 4.09154123 9.28958572 4.09154123 12 5 C13.77948425 5.85726979 15.55053724 6.7322722 17.3125 7.625 C18.19550781 8.07101563 19.07851562 8.51703125 19.98828125 8.9765625 C20.98408203 9.48316406 20.98408203 9.48316406 22 10 C20 11 20 11 17.8984375 10.3984375 C11.43355418 7.77645696 4.99521362 4.99521362 0 0 Z " fill="#880A0A" transform="translate(58,192)"/>
<path d="M0 0 C2.40072955 2.88087546 4.47291037 5.56404834 6 9 C6.99 9 7.98 9 9 9 C9.99 10.485 9.99 10.485 11 12 C11.99 12.33 12.98 12.66 14 13 C13.67 14.32 13.34 15.64 13 17 C11.29115995 15.37660195 9.62553283 13.70680947 8 12 C8 11.34 8 10.68 8 10 C7.443125 9.938125 6.88625 9.87625 6.3125 9.8125 C1.98289676 8.29128805 -0.52312268 4.71531598 -3 1 C-2.01 0.67 -1.02 0.34 0 0 Z " fill="#A60A11" transform="translate(156,108)"/>
<path d="M0 0 C2.91633776 1.30732382 4.75864056 2.75864056 7 5 C7.66 5 8.32 5 9 5 C9.66 5 10.32 5 11 5 C11 5.66 11 6.32 11 7 C10.34 7 9.68 7 9 7 C9.66 9.31 10.32 11.62 11 14 C5.53869421 9.90402066 3.05065912 6.10131824 0 0 Z " fill="#90060B" transform="translate(181,137)"/>
<path d="M0 0 C0.66 0.33 1.32 0.66 2 1 C1.49339844 2.16015625 1.49339844 2.16015625 0.9765625 3.34375 C-1.52615344 9.18824271 -3.68362277 14.77712584 -5 21 C-5.33 21 -5.66 21 -6 21 C-6.54347218 10.63377132 -6.54347218 10.63377132 -3 6 C-2.31822584 4.67432801 -1.64808564 3.34246312 -1 2 C-0.67 1.34 -0.34 0.68 0 0 Z " fill="#250000" transform="translate(55,75)"/>
<path d="M0 0 C0.66 0.33 1.32 0.66 2 1 C1.54625 1.391875 1.0925 1.78375 0.625 2.1875 C-1.17366094 3.96382139 -1.17366094 3.96382139 -1.9375 6.625 C-3 9 -3 9 -5.125 9.8125 C-5.74375 9.874375 -6.3625 9.93625 -7 10 C-7 10.66 -7 11.32 -7 12 C-7.66 12 -8.32 12 -9 12 C-9.33 12.99 -9.66 13.98 -10 15 C-10.33 14.34 -10.66 13.68 -11 13 C-9.92027262 11.5805831 -8.83604137 10.1645917 -7.75 8.75 C-6.84507813 7.56664063 -6.84507813 7.56664063 -5.921875 6.359375 C-4.06817005 4.08368843 -2.11101046 2.03628442 0 0 Z " fill="#9C0B0D" transform="translate(70,59)"/>
<path d="M0 0 C1.72990025 0.93614567 3.45888696 1.87397958 5.1875 2.8125 C6.15042969 3.33457031 7.11335938 3.85664063 8.10546875 4.39453125 C10.77398357 5.87463866 13.39374227 7.41337509 16 9 C15.01 9.33 14.02 9.66 13 10 C12.401875 9.690625 11.80375 9.38125 11.1875 9.0625 C8.3653005 7.69171739 6.0966471 7.85924331 3 8 C2.67 7.34 2.34 6.68 2 6 C2.66 5.67 3.32 5.34 4 5 C3.01 4.319375 3.01 4.319375 2 3.625 C1.34 3.08875 0.68 2.5525 0 2 C0 1.34 0 0.68 0 0 Z " fill="#2C0001" transform="translate(51,188)"/>
<path d="M0 0 C2.82604444 2.82604444 2.36679702 4.80726891 2.4375 8.75 C2.34943433 16.54781471 2.34943433 16.54781471 -0.375 19.875 C-3 22 -3 22 -5 22 C-5 21.34 -5 20.68 -5 20 C-4.34 20 -3.68 20 -3 20 C-2.87625 19.195625 -2.7525 18.39125 -2.625 17.5625 C-2.315625 16.2940625 -2.315625 16.2940625 -2 15 C-1.34 14.67 -0.68 14.34 0 14 C0 9.38 0 4.76 0 0 Z " fill="#88080E" transform="translate(126,104)"/>
<path d="M0 0 C0.66 0 1.32 0 2 0 C0.01492537 9.28109453 0.01492537 9.28109453 -4 12.125 C-7 13 -7 13 -10 13 C-10 12.34 -10 11.68 -10 11 C-8.02 10.34 -6.04 9.68 -4 9 C-3.814375 7.7934375 -3.814375 7.7934375 -3.625 6.5625 C-3.41875 5.716875 -3.2125 4.87125 -3 4 C-2.34 3.67 -1.68 3.34 -1 3 C-0.67 2.01 -0.34 1.02 0 0 Z " fill="#9D090F" transform="translate(95,32)"/>
<path d="M0 0 C0.70125 0.144375 1.4025 0.28875 2.125 0.4375 C5.07556141 1.01478375 8.03270151 1.51695141 11 2 C11 2.66 11 3.32 11 4 C12.423125 3.9071875 12.423125 3.9071875 13.875 3.8125 C14.90625 3.874375 15.9375 3.93625 17 4 C17.99 5.485 17.99 5.485 19 7 C11.375 6.125 11.375 6.125 8 5 C8 4.34 8 3.68 8 3 C7.236875 2.87625 6.47375 2.7525 5.6875 2.625 C3 2 3 2 0 0 Z " fill="#2D0001" transform="translate(82,177)"/>
<path d="M0 0 C-0.99 0.495 -0.99 0.495 -2 1 C-2.65213292 3.02463255 -2.65213292 3.02463255 -3 5 C-2.0409375 5.433125 -2.0409375 5.433125 -1.0625 5.875 C1 7 1 7 2 9 C-2.04420651 7.22054913 -5.46078487 4.60470327 -9 2 C-8 0 -8 0 -6.1875 -0.6875 C-3.81180233 -1.02688538 -2.26664171 -0.72856341 0 0 Z " fill="#990B0F" transform="translate(72,159)"/>
<path d="M0 0 C0.33 0 0.66 0 1 0 C1.02688151 1.64574566 1.04634123 3.29161413 1.0625 4.9375 C1.07410156 5.85402344 1.08570313 6.77054687 1.09765625 7.71484375 C1 10 1 10 0 11 C-0.23287008 12.68183948 -0.41264166 14.3712416 -0.5625 16.0625 C-0.68818359 17.44115234 -0.68818359 17.44115234 -0.81640625 18.84765625 C-0.87699219 19.55792969 -0.93757813 20.26820312 -1 21 C-3.97246801 16.1297255 -2.85225043 11.41843623 -2 6 C-0.9375 2.3125 -0.9375 2.3125 0 0 Z " fill="#210002" transform="translate(28,107)"/>
<path d="M0 0 C0.94875 0.04125 1.8975 0.0825 2.875 0.125 C1.49490379 3.46023252 0.02549348 5.31107951 -3.125 7.125 C-4.115 6.795 -5.105 6.465 -6.125 6.125 C-5.28810868 1.94054341 -4.61542241 0.1846169 0 0 Z " fill="#980607" transform="translate(78.125,95.875)"/>
<path d="M0 0 C4.62 0.66 9.24 1.32 14 2 C12.02 2.99 12.02 2.99 10 4 C10 4.66 10 5.32 10 6 C6.51329166 4.8905928 3.22515763 3.73662334 0 2 C0 1.34 0 0.68 0 0 Z " fill="#770A0D" transform="translate(118,17)"/>
<path d="M0 0 C0 0.99 0 1.98 0 3 C-0.61875 3.2475 -1.2375 3.495 -1.875 3.75 C-4.38895216 5.22879539 -4.8534051 6.37921165 -6 9 C-8 11 -8 11 -10.625 11.125 C-11.40875 11.08375 -12.1925 11.0425 -13 11 C-9.0299782 6.78185183 -4.69159716 3.38772897 0 0 Z " fill="#290202" transform="translate(174,182)"/>
<path d="M0 0 C2.49361571 1.20381448 4.68143083 2.45428722 7 4 C7 4.66 7 5.32 7 6 C8.98 6.66 10.96 7.32 13 8 C13 8.66 13 9.32 13 10 C13.66 10 14.32 10 15 10 C15.33 10.99 15.66 11.98 16 13 C12.83030356 11.54150642 10.19319346 9.76054587 7.4375 7.625 C6.67308594 7.03976563 5.90867187 6.45453125 5.12109375 5.8515625 C3.05860042 4.05115395 1.54933054 2.24727178 0 0 Z " fill="#89090E" transform="translate(42,179)"/>
<path d="M0 0 C-6.39644377 4.26429585 -12.53982506 4.27018742 -20 4 C-16.76393248 2.21860706 -13.57342755 1.22819081 -10 0.3125 C-8.96875 0.04050781 -7.9375 -0.23148438 -6.875 -0.51171875 C-4.11053448 -0.98122716 -2.60249272 -0.93214283 0 0 Z " fill="#8D0B0F" transform="translate(160,183)"/>
<path d="M0 0 C4 0 4 0 6.75 2.5 C7.86375 3.7375 7.86375 3.7375 9 5 C9.99 4.34 10.98 3.68 12 3 C12 4.98 12 6.96 12 9 C12.66 9 13.32 9 14 9 C13.67 9.66 13.34 10.32 13 11 C11.39400651 9.73147606 9.79027425 8.460089 8.1875 7.1875 C7.29417969 6.47980469 6.40085938 5.77210937 5.48046875 5.04296875 C3.52923089 3.43588623 1.73725024 1.82959577 0 0 Z " fill="#8F090D" transform="translate(139,98)"/>
<path d="M0 0 C5.28 0.66 10.56 1.32 16 2 C16.33 3.98 16.66 5.96 17 8 C16.34 7.67 15.68 7.34 15 7 C15.33 6.34 15.66 5.68 16 5 C15.21625 4.896875 14.4325 4.79375 13.625 4.6875 C8.9676024 3.80420046 4.51807851 2.41971242 0 1 C0 0.67 0 0.34 0 0 Z " fill="#350202" transform="translate(131,152)"/>
<path d="M0 0 C5.46864457 1.01591421 10.76390013 2.07091057 16 4 C15.34 5.32 14.68 6.64 14 8 C13.67 7.01 13.34 6.02 13 5 C11.35 5 9.7 5 8 5 C7.67 4.01 7.34 3.02 7 2 C5.02 2 3.04 2 1 2 C0.67 1.34 0.34 0.68 0 0 Z " fill="#9F0B0C" transform="translate(131,153)"/>
<path d="M0 0 C0 0.66 0 1.32 0 2 C-4.95 2 -9.9 2 -15 2 C-15 2.66 -15 3.32 -15 4 C-14.34 4 -13.68 4 -13 4 C-13.33 4.99 -13.66 5.98 -14 7 C-15.5 5.6875 -15.5 5.6875 -17 4 C-17 3.01 -17 2.02 -17 1 C-14.72926348 0.83201949 -12.45840707 0.66565887 -10.1875 0.5 C-8.29064453 0.36078125 -8.29064453 0.36078125 -6.35546875 0.21875 C-4.24021483 0.08085219 -2.11974408 0 0 0 Z " fill="#870A0F" transform="translate(48,163)"/>
<path d="M0 0 C2.64 1.98 5.28 3.96 8 6 C8.33 5.01 8.66 4.02 9 3 C9 4.65 9 6.3 9 8 C6.69 8 4.38 8 2 8 C1.34 5.36 0.68 2.72 0 0 Z " fill="#2E0304" transform="translate(166,122)"/>
<path d="M0 0 C2.84550012 0.66010476 5.52325999 1.51724966 8.25 2.5625 C8.95640625 2.83191406 9.6628125 3.10132813 10.390625 3.37890625 C10.92171875 3.58386719 11.4528125 3.78882813 12 4 C12 4.33 12 4.66 12 5 C10.35 5 8.7 5 7 5 C7 4.34 7 3.68 7 3 C5.68 3 4.36 3 3 3 C3 4.65 3 6.3 3 8 C1.0549 5.08235 0.54723683 3.37462715 0 0 Z " fill="#950B11" transform="translate(129,56)"/>
<path d="M0 0 C0.33 0 0.66 0 1 0 C1.02705729 1.77074917 1.04642195 3.54161711 1.0625 5.3125 C1.07410156 6.29863281 1.08570313 7.28476563 1.09765625 8.30078125 C1 11 1 11 0 14 C-1.32 13.34 -2.64 12.68 -4 12 C-3.34 11.67 -2.68 11.34 -2 11 C-2 8.69 -2 6.38 -2 4 C-1.34 4 -0.68 4 0 4 C0 2.68 0 1.36 0 0 Z " fill="#A00B0F" transform="translate(174,114)"/>
<path d="M0 0 C1.45839897 3.95705456 0.67906093 7.69831388 0.0625 11.75 C-0.03740234 12.44738281 -0.13730469 13.14476563 -0.24023438 13.86328125 C-0.48665873 15.57651726 -0.74240955 17.28840725 -1 19 C-1.66 18.67 -2.32 18.34 -3 18 C-2.32418477 11.91766294 -1.26361972 5.98685848 0 0 Z " fill="#340101" transform="translate(87,66)"/>
<path d="M0 0 C1.32 0.33 2.64 0.66 4 1 C2.99796679 4.00609963 2.39971554 5.06176821 0 7 C-0.99 7 -1.98 7 -3 7 C-3 5.35 -3 3.7 -3 2 C-2.01 2 -1.02 2 0 2 C0 1.34 0 0.68 0 0 Z " fill="#090303" transform="translate(60,62)"/>
<path d="M0 0 C-0.50712033 3.71888239 -1.11608215 6.73454239 -3 10 C-3 7.69 -3 5.38 -3 3 C-4.98 3.33 -6.96 3.66 -9 4 C-8 2 -8 2 -5.0625 0.875 C-2 0 -2 0 0 0 Z " fill="#890C0D" transform="translate(92,48)"/>
<path d="M0 0 C-1.07401108 2.91517292 -1.77810176 4.77810176 -4 7 C-6.625 6.625 -6.625 6.625 -9 6 C-3.15384615 0 -3.15384615 0 0 0 Z " fill="#90050A" transform="translate(64,29)"/>
<path d="M0 0 C0 3.10551666 -0.5393715 4.35261084 -2 7 C-2.66 7 -3.32 7 -4 7 C-4.66 8.32 -5.32 9.64 -6 11 C-6.99 11 -7.98 11 -9 11 C-8.67 10.01 -8.34 9.02 -8 8 C-7.34 8 -6.68 8 -6 8 C-5.7525 7.4225 -5.505 6.845 -5.25 6.25 C-3.83316683 3.6997003 -2.12372463 1.98214299 0 0 Z " fill="#370101" transform="translate(62,112)"/>
<path d="M0 0 C1.485 0.99 1.485 0.99 3 2 C3 2.66 3 3.32 3 4 C3.66 4 4.32 4 5 4 C6.38938077 5.96147874 7.7260411 7.96166576 9 10 C8.67 10.66 8.34 11.32 8 12 C7.01 11.34 6.02 10.68 5 10 C4.34 10 3.68 10 3 10 C3 8.68 3 7.36 3 6 C2.34 5.67 1.68 5.34 1 5 C0.375 2.4375 0.375 2.4375 0 0 Z " fill="#2A0000" transform="translate(155,46)"/>
<path d="M0 0 C-0.33 0.99 -0.66 1.98 -1 3 C-4.0625 4.1875 -4.0625 4.1875 -7 5 C-7.99 3.68 -8.98 2.36 -10 1 C-6.21812119 -0.83691257 -4.05431692 -1.15837626 0 0 Z " fill="#140102" transform="translate(151,201)"/>
<path d="M0 0 C-0.33 1.65 -0.66 3.3 -1 5 C-2.32 4.67 -3.64 4.34 -5 4 C-5.33 2.68 -5.66 1.36 -6 0 C-3.50907189 -1.24546405 -2.58919267 -0.7767578 0 0 Z " fill="#080506" transform="translate(47,186)"/>
<path d="M0 0 C-2.08648582 1.81898764 -3.46621791 3.00696217 -6 4 C-9.14569306 3.76471239 -12.01033661 2.98326707 -15 2 C-15 1.67 -15 1.34 -15 1 C-12.87630763 0.63807496 -10.7509887 0.28568253 -8.625 -0.0625 C-6.84996094 -0.35833984 -6.84996094 -0.35833984 -5.0390625 -0.66015625 C-2 -1 -2 -1 0 0 Z " fill="#360000" transform="translate(119,130)"/>
<path d="M0 0 C1.875 0.125 1.875 0.125 4 1 C5.25 4.0625 5.25 4.0625 6 7 C0.25 5.375 0.25 5.375 -2 2 C-1.34 2 -0.68 2 0 2 C0 1.34 0 0.68 0 0 Z " fill="#8F0607" transform="translate(138,26)"/>
<path d="M0 0 C0.33 0 0.66 0 1 0 C1.33 4.29 1.66 8.58 2 13 C1.01 12.34 0.02 11.68 -1 11 C-1.328125 8.65234375 -1.328125 8.65234375 -1.25 5.9375 C-1.23453125 5.03902344 -1.2190625 4.14054687 -1.203125 3.21484375 C-1 1 -1 1 0 0 Z " fill="#340101" transform="translate(90,107)"/>
<path d="M0 0 C3.3907519 1.45317939 5.41300312 3.41300312 8 6 C8.99 6.33 9.98 6.66 11 7 C11.33 8.65 11.66 10.3 12 12 C9.95880212 10.38405168 7.95927063 8.7143618 6 7 C6 6.34 6 5.68 6 5 C5.38125 4.731875 4.7625 4.46375 4.125 4.1875 C2 3 2 3 0 0 Z " fill="#3A0101" transform="translate(152,67)"/>
<path d="M0 0 C3.86107457 2.57404971 3.94319692 4.61020259 5 9 C3.68388323 8.04663979 2.37221039 7.08714226 1.0625 6.125 C0.33160156 5.59132813 -0.39929688 5.05765625 -1.15234375 4.5078125 C-3 3 -3 3 -4 1 C-3.01 1.33 -2.02 1.66 -1 2 C-0.67 1.34 -0.34 0.68 0 0 Z " fill="#280204" transform="translate(171,35)"/>
<path d="M0 0 C-4.82029598 3.97674419 -4.82029598 3.97674419 -8.1796875 4.04296875 C-10.13337437 3.78224541 -12.06987075 3.39933709 -14 3 C-4.91666667 -1.89102564 -4.91666667 -1.89102564 0 0 Z " fill="#9C080B" transform="translate(94,152)"/>
<path d="M0 0 C0.66 0.33 1.32 0.66 2 1 C-0.25 3.5625 -0.25 3.5625 -3 6 C-5.3125 5.8125 -5.3125 5.8125 -7 5 C-6.67 3.68 -6.34 2.36 -6 1 C-6 1.66 -6 2.32 -6 3 C-5.05125 2.484375 -4.1025 1.96875 -3.125 1.4375 C-2.09375 0.963125 -1.0625 0.48875 0 0 Z " fill="#1E0302" transform="translate(199,151)"/>
<path d="M0 0 C1.65 0.33 3.3 0.66 5 1 C3.8125 3.4375 3.8125 3.4375 2 6 C-0.6875 6.8125 -0.6875 6.8125 -3 7 C-2.1654738 4.49642139 -1.20628008 2.33214148 0 0 Z " fill="#B10908" transform="translate(54,114)"/>
<path d="M0 0 C-1.78953185 0.83790789 -3.58169695 1.67019396 -5.375 2.5 C-6.87160156 3.19609375 -6.87160156 3.19609375 -8.3984375 3.90625 C-11 5 -11 5 -13 5 C-12 2 -12 2 -10.29296875 1.015625 C-9.59816406 0.76296875 -8.90335937 0.5103125 -8.1875 0.25 C-7.15689453 -0.14445312 -7.15689453 -0.14445312 -6.10546875 -0.546875 C-3.71856031 -1.06056958 -2.29362227 -0.76282269 0 0 Z " fill="#1D0000" transform="translate(77,23)"/>
<path d="M0 0 C0.99 0.33 1.98 0.66 3 1 C3 1.66 3 2.32 3 3 C3.66 3.33 4.32 3.66 5 4 C4.34 4.66 3.68 5.32 3 6 C1.68 6 0.36 6 -1 6 C-1.33 4.35 -1.66 2.7 -2 1 C-1.34 0.67 -0.68 0.34 0 0 Z " fill="#080707" transform="translate(76,15)"/>
<path d="M0 0 C0.66 0 1.32 0 2 0 C2.33 0.99 2.66 1.98 3 3 C3.639375 3.309375 4.27875 3.61875 4.9375 3.9375 C7.45468915 5.2342338 7.96886948 6.4221737 9 9 C7.68 8.34 6.36 7.68 5 7 C5 6.34 5 5.68 5 5 C3.68 5 2.36 5 1 5 C0.67 3.35 0.34 1.7 0 0 Z " fill="#AB0607" transform="translate(138,93)"/>
<path d="M0 0 C0.33 0 0.66 0 1 0 C1.20674944 5.78898419 0.59162079 10.42932723 -1 16 C-1.33 16 -1.66 16 -2 16 C-2 12.7 -2 9.4 -2 6 C-1.34 6 -0.68 6 0 6 C0 4.02 0 2.04 0 0 Z " fill="#8B0B0F" transform="translate(83,80)"/>
<path d="M0 0 C1.12377697 3.30435084 0.89554742 5.0506862 -0.4375 8.25 C-0.72496094 8.95640625 -1.01242188 9.6628125 -1.30859375 10.390625 C-1.53675781 10.92171875 -1.76492187 11.4528125 -2 12 C-2.66 12 -3.32 12 -4 12 C-3.45660208 7.43545749 -2.20536179 4.0271824 0 0 Z " fill="#900B0B" transform="translate(57,74)"/>
<path d="M0 0 C0 0.66 0 1.32 0 2 C-3.63 2.66 -7.26 3.32 -11 4 C-6.98844558 -0.01155442 -5.52552982 -0.12012021 0 0 Z " fill="#290100" transform="translate(112,143)"/>
<path d="M0 0 C2.31 1.65 4.62 3.3 7 5 C6.01 5.33 5.02 5.66 4 6 C3.67 6.66 3.34 7.32 3 8 C2.67 7.34 2.34 6.68 2 6 C2.33 5.34 2.66 4.68 3 4 C2.01 3.67 1.02 3.34 0 3 C0 2.01 0 1.02 0 0 Z " fill="#1D0102" transform="translate(44,182)"/>
<path d="M0 0 C1.65 0.33 3.3 0.66 5 1 C5.33 1.99 5.66 2.98 6 4 C3.36 3.67 0.72 3.34 -2 3 C-1.34 2.67 -0.68 2.34 0 2 C0 1.34 0 0.68 0 0 Z " fill="#B50305" transform="translate(66,172)"/>
<path d="M0 0 C2.475 0.99 2.475 0.99 5 2 C5 2.99 5 3.98 5 5 C5.66 5 6.32 5 7 5 C7.33 6.32 7.66 7.64 8 9 C6.84775972 8.07038578 5.70340824 7.1309875 4.5625 6.1875 C3.60537109 5.40439453 3.60537109 5.40439453 2.62890625 4.60546875 C1 3 1 3 0 0 Z " fill="#87080D" transform="translate(34,170)"/>
<path d="M0 0 C-2.31 1.65 -4.62 3.3 -7 5 C-8 2 -8 2 -8 0 C-4.71303767 -0.79953138 -3.28976808 -1.09658936 0 0 Z " fill="#A70908" transform="translate(144,162)"/>
<path d="M0 0 C2.73961599 1.369808 3.27531568 3.3370115 4.40234375 6.078125 C5.23605798 8.7590884 5.20345414 11.21946008 5 14 C3.23662322 11.35493484 2.3439149 9.40786033 1.375 6.4375 C0.98441406 5.25994141 0.98441406 5.25994141 0.5859375 4.05859375 C0 2 0 2 0 0 Z " fill="#871012" transform="translate(19,139)"/>
<path d="M0 0 C1.9375 0.75 1.9375 0.75 4 2 C4.75 4.125 4.75 4.125 5 6 C3.35 5.67 1.7 5.34 0 5 C-0.33 4.01 -0.66 3.02 -1 2 C-0.67 1.34 -0.34 0.68 0 0 Z " fill="#190201" transform="translate(89,118)"/>
<path d="M0 0 C0.433125 0.474375 0.86625 0.94875 1.3125 1.4375 C3.02309613 3.23686957 3.02309613 3.23686957 6 4 C7.1875 6.0625 7.1875 6.0625 8 8 C5.6875 7.8125 5.6875 7.8125 3 7 C0 2.96551724 0 2.96551724 0 0 Z " fill="#360202" transform="translate(158,114)"/>
<path d="M0 0 C1 2 1 2 0.44140625 3.9453125 C0.15136719 4.66460938 -0.13867188 5.38390625 -0.4375 6.125 C-0.72496094 6.84945313 -1.01242188 7.57390625 -1.30859375 8.3203125 C-1.53675781 8.87460937 -1.76492187 9.42890625 -2 10 C-2.33 10 -2.66 10 -3 10 C-3.33 7.36 -3.66 4.72 -4 2 C-2.68 1.34 -1.36 0.68 0 0 Z " fill="#99090D" transform="translate(100,22)"/>
<path d="M0 0 C0.99 0 1.98 0 3 0 C2.42415568 2.38564077 1.77772405 4.66682784 1 7 C0.01 7.33 -0.98 7.66 -2 8 C-1.34 5.36 -0.68 2.72 0 0 Z " fill="#2F0102" transform="translate(101,21)"/>
<path d="M0 0 C1.32 0.33 2.64 0.66 4 1 C0.535 3.97 0.535 3.97 -3 7 C-3 6.34 -3 5.68 -3 5 C-3.66 4.67 -4.32 4.34 -5 4 C-4.0409375 3.8453125 -4.0409375 3.8453125 -3.0625 3.6875 C-2.381875 3.460625 -1.70125 3.23375 -1 3 C-0.67 2.01 -0.34 1.02 0 0 Z " fill="#870609" transform="translate(173,179)"/>
<path d="M0 0 C0.66 0.33 1.32 0.66 2 1 C0.875 3 0.875 3 -1 5 C-4.1875 5.25 -4.1875 5.25 -7 5 C-4.702779 3.25728062 -2.40133271 1.60088848 0 0 Z " fill="#2E0001" transform="translate(137,166)"/>
<path d="M0 0 C0.66 0.99 1.32 1.98 2 3 C-1.96 2.67 -5.92 2.34 -10 2 C-10 1.67 -10 1.34 -10 1 C-6.61292998 0.22581257 -3.47338282 -0.37550085 0 0 Z " fill="#81090F" transform="translate(58,161)"/>
<path d="M0 0 C0.66 0.33 1.32 0.66 2 1 C-1.32307692 5.8 -1.32307692 5.8 -4.75 6.8125 C-5.4925 6.874375 -6.235 6.93625 -7 7 C-4.66666667 4.66666667 -2.33333333 2.33333333 0 0 Z " fill="#220000" transform="translate(73,103)"/>
<path d="M0 0 C0.33 0.66 0.66 1.32 1 2 C1.66 2 2.32 2 3 2 C3 5.3 3 8.6 3 12 C2.67 12 2.34 12 2 12 C0.86235649 7.73383684 0 4.43513689 0 0 Z " fill="#8B080C" transform="translate(176,84)"/>
<path d="M0 0 C0.33 0.99 0.66 1.98 1 3 C0.34 3 -0.32 3 -1 3 C-1.103125 3.763125 -1.20625 4.52625 -1.3125 5.3125 C-2.04364039 8.17059424 -2.76951913 9.15742885 -5 11 C-5 9.35 -5 7.7 -5 6 C-4.34 5.67 -3.68 5.34 -3 5 C-2.67 4.01 -2.34 3.02 -2 2 C-1.34 2 -0.68 2 0 2 C0 1.34 0 0.68 0 0 Z " fill="#9B0B0D" transform="translate(37,85)"/>
<path d="M0 0 C-0.66 1.32 -1.32 2.64 -2 4 C-3.98 4 -5.96 4 -8 4 C-8 3.34 -8 2.68 -8 2 C-2.25 0 -2.25 0 0 0 Z " fill="#A60507" transform="translate(80,55)"/>
<path d="M0 0 C0 3 0 3 -1.3125 4.38671875 C-2.875 5.59114583 -4.4375 6.79557292 -6 8 C-4.52307692 2.33846154 -4.52307692 2.33846154 -1.875 0.625 C-0.946875 0.315625 -0.946875 0.315625 0 0 Z " fill="#260200" transform="translate(38,48)"/>
<path d="M0 0 C0.66 0.33 1.32 0.66 2 1 C0.68 2.65 -0.64 4.3 -2 6 C-3.32 5.67 -4.64 5.34 -6 5 C-5.01 4.67 -4.02 4.34 -3 4 C-3 3.34 -3 2.68 -3 2 C-2.01 1.34 -1.02 0.68 0 0 Z " fill="#870A0B" transform="translate(53,35)"/>
<path d="M0 0 C3.465 1.98 3.465 1.98 7 4 C6.01 4.495 6.01 4.495 5 5 C5 5.66 5 6.32 5 7 C4.34 7 3.68 7 3 7 C0 2.61538462 0 2.61538462 0 0 Z " fill="#200002" transform="translate(129,24)"/>
<path d="M0 0 C3.63 0 7.26 0 11 0 C9.68 0.33 8.36 0.66 7 1 C7 1.66 7 2.32 7 3 C4.03824877 2.38722388 2.61941217 1.74627478 0 0 Z " fill="#B60207" transform="translate(101,187)"/>
<path d="M0 0 C-0.66 1.32 -1.32 2.64 -2 4 C-4.31 4 -6.62 4 -9 4 C-3.7826087 0 -3.7826087 0 0 0 Z " fill="#880A09" transform="translate(169,178)"/>
<path d="M0 0 C3.44216672 2.6598561 3.99504674 5.90288286 5 10 C4.34 9.67 3.68 9.34 3 9 C3 8.34 3 7.68 3 7 C2.34 7 1.68 7 1 7 C0.67 4.69 0.34 2.38 0 0 Z " fill="#81060A" transform="translate(167,85)"/>
<path d="M0 0 C0 1.65 0 3.3 0 5 C-1.65 4.67 -3.3 4.34 -5 4 C-5 3.01 -5 2.02 -5 1 C-2 0 -2 0 0 0 Z " fill="#BD0307" transform="translate(89,51)"/>
<path d="M0 0 C-0.33 0.99 -0.66 1.98 -1 3 C-3.31 3.33 -5.62 3.66 -8 4 C-3.375 0 -3.375 0 0 0 Z " fill="#0C0100" transform="translate(87,47)"/>
<path d="M0 0 C0.66 0 1.32 0 2 0 C0.63016497 3.16115776 0.0109362 3.9927092 -3 6 C-3.99 5.34 -4.98 4.68 -6 4 C-5.195625 3.525625 -4.39125 3.05125 -3.5625 2.5625 C-1.15246512 1.23099846 -1.15246512 1.23099846 0 0 Z " fill="#641011" transform="translate(186,166)"/>
<path d="M0 0 C0.33 0 0.66 0 1 0 C1.29296875 6.0546875 1.29296875 6.0546875 1 8 C0.01 8.66 -0.98 9.32 -2 10 C-1.46274105 6.62294375 -0.88935377 3.303314 0 0 Z " fill="#1F0001" transform="translate(92,48)"/>
<path d="M0 0 C5.75 1.75 5.75 1.75 8 4 C6.02 4.33 4.04 4.66 2 5 C2 4.01 2 3.02 2 2 C1.34 2 0.68 2 0 2 C0 1.34 0 0.68 0 0 Z " fill="#99090A" transform="translate(146,25)"/>
</svg>
